#!OML:ASF H:\Punching\Project 1\Capture day 1\Session 1\female.ASF
:FULLY-SPECIFIED
:DEGREES
1970
root -1.53957 15.6558 7.30611 14.1279 -0.562 1.87197
lowerback -4.31281 -0.4957 0.601321
upperback -7.15178 -0.648927 0.609761
thorax -4.98087 -0.3389 0.295937
lowerneck -12.6525 3.29449 8.73809
upperneck 28.2407 3.74483 -4.15593
head 11.5429 2.12204 -2.52326
rclavicle 3.18055e-015 -3.97569e-016
rhumerus -44.9283 -10.8062 -69.4628
rradius 39.6604
rwrist 5.02903
rhand -4.09575 -15.4861
rfingers 7.12502
rthumb 21.662 -44.2943
lclavicle 3.18055e-015 -3.97569e-016
lhumerus -59.2847 8.29504 71.9307
lradius 52.0403
lwrist -10.1166
lhand -0.634113 14.0997
lfingers 7.12502
lthumb 24.9829 42.4863
rfemur -19.7654 3.69672 14.7983
rtibia 32.4869
rfoot -22.7219 -22.6387
rtoes 1.47591
lfemur -7.1531 -16.0565 -17.4651
ltibia 12.7962
lfoot -18.1382 24.6021
ltoes -0.734644
1971
root -1.54619 15.6523 7.31253 14.0902 -0.781501 1.86625
lowerback -4.36173 -0.508412 0.565754
upperback -7.14966 -0.667422 0.588938
thorax -4.95077 -0.347186 0.293761
lowerneck -12.5904 3.35837 8.80865
upperneck 28.3641 3.85551 -4.25154
head 11.5906 2.16999 -2.55798
rclavicle 2.5345e-015 -2.78299e-015
rhumerus -44.4879 -10.2698 -69.8086
rradius 41.204
rwrist 3.92146
rhand -4.02179 -15.8009
rfingers 7.12502
rthumb 21.733 -44.6009
lclavicle 2.5345e-015 -2.78299e-015
lhumerus -59.0946 8.14789 71.567
lradius 53.7575
lwrist -9.18801
lhand -1.37258 14.3917
lfingers 7.12502
lthumb 24.275 42.8749
rfemur -19.7905 3.67411 14.7987
rtibia 32.5736
rfoot -22.8928 -22.4065
rtoes 1.31418
lfemur -7.03237 -15.9113 -17.5088
ltibia 12.7939
lfoot -18.2109 24.662
ltoes -0.757821
1972
root -1.55483 15.6485 7.32012 14.0459 -0.996758 1.85607
lowerback -4.41204 -0.525183 0.534107
upperback -7.14419 -0.691282 0.570597
thorax -4.91636 -0.358288 0.291892
lowerneck -12.5208 3.42683 8.8774
upperneck 28.4842 3.97488 -4.34931
head 11.6366 2.22141 -2.59209
rclavicle -5.93869e-015 1.07344e-014
rhumerus -44.063 -9.71135 -70.1375
rradius 42.8978
rwrist 2.8473
rhand -3.82071 -16.1928
rfingers 7.12502
rthumb 21.9261 -44.9703
lclavicle -5.93869e-015 1.07344e-014
lhumerus -58.9092 7.97811 71.2066
lradius 55.5409
lwrist -8.29476
lhand -2.25862 14.705
lfingers 7.12502
lthumb 23.4253 43.2992
rfemur -19.8003 3.66204 14.8135
rtibia 32.6583
rfoot -23.0855 -22.186
rtoes 1.12728
lfemur -6.90236 -15.7632 -17.5412
ltibia 12.7943
lfoot -18.2851 24.7184
ltoes -0.792974
1973
root -1.56536 15.6443 7.32906 13.9949 -1.21143 1.83727
lowerback -4.4631 -0.543782 0.510669
upperback -7.13662 -0.717494 0.556496
thorax -4.87936 -0.370867 0.289761
lowerneck -12.4414 3.49831 8.93902
upperneck 28.6026 4.10165 -4.44698
head 11.6805 2.27548 -2.62405
rclavicle 6.65929e-015 -4.77083e-015
rhumerus -43.652 -9.12255 -70.4533
rradius 44.7265
rwrist 1.78568
rhand -3.57697 -16.608
rfingers 7.12502
rthumb 22.1601 -45.3579
lclavicle 6.65929e-015 -4.77083e-015
lhumerus -58.7256 7.78097 70.852
lradius 57.3693
lwrist -7.45664
lhand -3.30171 15.006
lfingers 7.12502
lthumb 22.4244 43.7242
rfemur -19.7938 3.66321 14.8461
rtibia 32.7377
rfoot -23.2915 -21.9793
rtoes 0.924838
lfemur -6.76624 -15.6143 -17.5595
ltibia 12.8075
lfoot -18.3661 24.7781
ltoes -0.848244
1974
root -1.57765 15.6397 7.33912 13.9394 -1.42629 1.80825
lowerback -4.51516 -0.562957 0.498165
upperback -7.12718 -0.74443 0.546741
thorax -4.83992 -0.384237 0.285943
lowerneck -12.3557 3.57313 8.99455
upperneck 28.7221 4.2363 -4.54628
head 11.7246 2.33231 -2.65463
rclavicle -2.00773e-014 -5.96354e-015
rhumerus -43.251 -8.48589 -70.7714
rradius 46.6703
rwrist 0.669662
rhand -3.46486 -16.9116
rfingers 7.12502
rthumb 22.2678 -45.6487
lclavicle -2.00773e-014 -5.96354e-015
lhumerus -58.5411 7.56029 70.4974
lradius 59.2375
lwrist -6.70288
lhand -4.47634 15.2771
lfingers 7.12502
lthumb 21.2965 44.127
rfemur -19.7727 3.6735 14.899
rtibia 32.8096
rfoot -23.498 -21.7879
rtoes 0.692844
lfemur -6.63151 -15.4567 -17.5615
ltibia 12.8426
lfoot -18.4566 24.8355
ltoes -0.922946
1975
root -1.59164 15.6346 7.35039 13.8791 -1.64467 1.7668
lowerback -4.56484 -0.580265 0.500139
upperback -7.11845 -0.768862 0.540925
thorax -4.80276 -0.396973 0.278107
lowerneck -12.2643 3.64972 9.04416
upperneck 28.8474 4.37693 -4.64815
head 11.7704 2.39099 -2.68456
rclavicle -9.24349e-015 -1.07344e-014
rhumerus -42.8615 -7.80288 -71.092
rradius 48.7103
rwrist -0.50227
rhand -3.54247 -17.1199
rfingers 7.12502
rthumb 22.1933 -45.8658
lclavicle -9.24349e-015 -1.07344e-014
lhumerus -58.3569 7.31438 70.1407
lradius 61.1367
lwrist -6.02983
lhand -5.76634 15.5035
lfingers 7.12502
lthumb 20.057 44.4883
rfemur -19.7351 3.701 14.9722
rtibia 32.871
rfoot -23.6964 -21.6107
rtoes 0.442958
lfemur -6.49987 -15.2667 -17.5466
ltibia 12.9071
lfoot -18.556 24.8727
ltoes -1.03588
1976
root -1.60711 15.629 7.36287 13.8134 -1.86642 1.71655
lowerback -4.61222 -0.595941 0.515877
upperback -7.10995 -0.791212 0.536752
thorax -4.76733 -0.409305 0.264277
lowerneck -12.165 3.72693 9.08442
upperneck 28.9774 4.52112 -4.74675
head 11.8168 2.45077 -2.71141
rclavicle 1.47598e-014 -1.11319e-014
rhumerus -42.479 -7.07589 -71.4167
rradius 50.8284
rwrist -1.72415
rhand -3.82985 -17.1804
rfingers 7.12502
rthumb 21.9173 -45.9589
lclavicle 1.47598e-014 -1.11319e-014
lhumerus -58.1712 7.0499 69.7744
lradius 63.0711
lwrist -5.43134
lhand -7.12861 15.7005
lfingers 7.12502
lthumb 18.7471 44.8171
rfemur -19.6808 3.73397 15.0624
rtibia 32.923
rfoot -23.8894 -21.4398
rtoes 0.206963
lfemur -6.36886 -15.041 -17.5197
ltibia 12.9983
lfoot -18.6664 24.8845
ltoes -1.17642
1977
root -1.62407 15.623 7.37635 13.742 -2.09407 1.65575
lowerback -4.65664 -0.608912 0.545367
upperback -7.09816 -0.810056 0.534984
thorax -4.73028 -0.420485 0.245234
lowerneck -12.0711 3.80584 9.11788
upperneck 29.1158 4.66935 -4.84439
head 11.8681 2.51171 -2.73631
rclavicle -1.09083e-014 -1.07344e-014
rhumerus -42.0906 -6.31588 -71.7419
rradius 53.0126
rwrist -2.96564
rhand -4.3114 -17.1379
rfingers 7.12502
rthumb 21.4549 -45.9698
lclavicle -1.09083e-014 -1.07344e-014
lhumerus -57.9699 6.78159 69.3918
lradius 65.0344
lwrist -4.90943
lhand -8.51787 15.8584
lfingers 7.12502
lthumb 17.4105 45.0987
rfemur -19.6112 3.78374 15.1684
rtibia 32.9665
rfoot -24.0661 -21.2707
rtoes -0.0213118
lfemur -6.23658 -14.7652 -17.4788
ltibia 13.1126
lfoot -18.7832 24.8605
ltoes -1.35293
1978
root -1.64243 15.617 7.39097 13.6653 -2.32719 1.59181
lowerback -4.70055 -0.620053 0.582373
upperback -7.08455 -0.826594 0.533491
thorax -4.69174 -0.430857 0.222245
lowerneck -11.9742 3.88526 9.1472
upperneck 29.2587 4.82088 -4.94425
head 11.9212 2.57342 -2.76109
rclavicle 1.64494e-014 -1.43125e-014
rhumerus -41.6954 -5.53079 -72.0592
rradius 55.2497
rwrist -4.18987
rhand -4.95134 -16.9494
rfingers 7.12502
rthumb 20.8402 -45.8502
lclavicle 1.64494e-014 -1.43125e-014
lhumerus -57.7535 6.51916 68.9852
lradius 67.0278
lwrist -4.46942
lhand -9.88963 16.0044
lfingers 7.12502
lthumb 16.0899 45.3564
rfemur -19.5314 3.84778 15.2808
rtibia 33.0067
rfoot -24.2361 -21.0955
rtoes -0.22392
lfemur -6.10149 -14.4301 -17.4315
ltibia 13.2442
lfoot -18.9008 24.7907
ltoes -1.5638
1979
root -1.662 15.6108 7.4065 13.5816 -2.56459 1.52926
lowerback -4.74037 -0.630899 0.623107
upperback -7.06724 -0.842842 0.531254
thorax -4.6517 -0.441262 0.196396
lowerneck -11.8758 3.96625 9.16958
upperneck 29.4024 4.97633 -5.04181
head 11.9748 2.63633 -2.78336
rclavicle 1.0138e-014 1.31198e-014
rhumerus -41.282 -4.73525 -72.3606
rradius 57.5363
rwrist -5.34278
rhand -5.64129 -16.7224
rfingers 7.12502
rthumb 20.1772 -45.6945
lclavicle 1.0138e-014 1.31198e-014
lhumerus -57.5115 6.26622 68.5522
lradius 69.0458
lwrist -4.10204
lhand -11.2077 16.1243
lfingers 7.12502
lthumb 14.8204 45.5743
rfemur -19.4397 3.92256 15.3929
rtibia 33.0467
rfoot -24.3996 -20.9061
rtoes -0.395396
lfemur -5.96285 -14.04 -17.3829
ltibia 13.3934
lfoot -19.017 24.6779
ltoes -1.81951
1980
root -1.68278 15.6044 7.4227 13.4902 -2.80556 1.46867
lowerback -4.77605 -0.64198 0.667242
upperback -7.04523 -0.859551 0.527039
thorax -4.60915 -0.452084 0.166583
lowerneck -11.7714 4.04923 9.1917
upperneck 29.5404 5.13606 -5.14116
head 12.0258 2.70085 -2.80573
rclavicle -7.45443e-015 -5.1684e-015
rhumerus -40.8457 -3.94174 -72.6405
rradius 59.8691
rwrist -6.38643
rhand -6.31199 -16.4858
rfingers 7.12502
rthumb 19.5324 -45.5247
lclavicle -7.45443e-015 -5.1684e-015
lhumerus -57.2419 6.02465 68.0898
lradius 71.0842
lwrist -3.8159
lhand -12.4618 16.2114
lfingers 7.12502
lthumb 13.612 45.7464
rfemur -19.3394 3.99865 15.5065
rtibia 33.0907
rfoot -24.5525 -20.7006
rtoes -0.589796
lfemur -5.82665 -13.5889 -17.3321
ltibia 13.5688
lfoot -19.1324 24.5155
ltoes -2.12434
1981
root -1.70456 15.5975 7.43971 13.3887 -3.04457 1.41172
lowerback -4.80134 -0.654668 0.716183
upperback -7.02149 -0.878535 0.519383
thorax -4.57081 -0.464345 0.13061
lowerneck -11.6534 4.13276 9.21652
upperneck 29.6697 5.2984 -5.2441
head 12.0712 2.76642 -2.82969
rclavicle -5.2181e-016 1.03368e-014
rhumerus -40.3822 -3.15319 -72.8999
rradius 62.2341
rwrist -7.32288
rhand -6.94942 -16.2612
rfingers 7.12502
rthumb 18.9195 -45.3611
lclavicle -5.2181e-016 1.03368e-014
lhumerus -56.9485 5.77859 67.6037
lradius 73.1313
lwrist -3.59508
lhand -13.6705 16.2435
lfingers 7.12502
lthumb 12.4468 45.8529
rfemur -19.2254 4.0736 15.6173
rtibia 33.1374
rfoot -24.6962 -20.4696
rtoes -0.810851
lfemur -5.70707 -13.0713 -17.2799
ltibia 13.8013
lfoot -19.2557 24.2927
ltoes -2.4939
